<svg width="81" height="81" viewBox="0 0 81 81" fill="none" xmlns="http://www.w3.org/2000/svg">
<g clip-path="url(#clip0_642_18538)">
<mask id="mask0_642_18538" style="mask-type:luminance" maskUnits="userSpaceOnUse" x="0" y="0" width="81" height="81">
<path d="M80.67 0.233887H0.669998V80.2339H80.67V0.233887Z" fill="white"/>
</mask>
<g mask="url(#mask0_642_18538)">
<path d="M40.54 48.2339C31.82 48.2339 23.22 45.9239 15.67 41.5339C14.71 40.9839 14.39 39.7539 14.94 38.8039C15.49 37.8539 16.72 37.5239 17.67 38.0739C24.65 42.1239 32.6 44.2339 40.66 44.2239H40.72C48.77 44.2239 56.7 42.0939 63.67 38.0639C64.63 37.5139 65.85 37.8339 66.4 38.7939C66.95 39.7539 66.63 40.9739 65.67 41.5239C58.08 45.9139 49.41 48.1939 40.67 48.2139H40.54V48.2339Z" fill="url(#paint0_linear_642_18538)"/>
<path d="M62.67 64.2339H18.67C16.46 64.2339 14.67 62.4439 14.67 60.2339V28.2339C14.67 26.0239 16.46 24.2339 18.67 24.2339H62.67C64.88 24.2339 66.67 26.0239 66.67 28.2339V60.2339C66.67 62.4439 64.88 64.2339 62.67 64.2339ZM18.67 28.2339V60.2339H62.67V28.2339H18.67Z" fill="url(#paint1_linear_642_18538)"/>
<path d="M50.67 28.2339C49.57 28.2339 48.67 27.3339 48.67 26.2339V22.2339C48.67 21.7039 48.46 21.1939 48.08 20.8239C47.71 20.4539 47.19 20.2339 46.67 20.2339H34.67C34.14 20.2339 33.63 20.4439 33.26 20.8239C32.89 21.2039 32.67 21.7139 32.67 22.2339V26.2339C32.67 27.3339 31.77 28.2339 30.67 28.2339C29.57 28.2339 28.67 27.3339 28.67 26.2339V22.2339C28.67 20.6339 29.29 19.1239 30.43 17.9939C31.57 16.8639 33.07 16.2339 34.67 16.2339H46.67C48.27 16.2339 49.78 16.8539 50.91 17.9939C52.04 19.1239 52.67 20.6339 52.67 22.2339V26.2339C52.67 27.3339 51.77 28.2339 50.67 28.2339Z" fill="url(#paint2_linear_642_18538)"/>
<path d="M43.67 40.2339H37.67C36.57 40.2339 35.67 39.3339 35.67 38.2339C35.67 37.1339 36.57 36.2339 37.67 36.2339H43.67C44.77 36.2339 45.67 37.1339 45.67 38.2339C45.67 39.3339 44.77 40.2339 43.67 40.2339Z" fill="url(#paint3_linear_642_18538)"/>
</g>
</g>
<defs>
<linearGradient id="paint0_linear_642_18538" x1="66.5015" y1="38.2338" x2="16.5015" y2="38.2338" gradientUnits="userSpaceOnUse">
<stop stop-color="#00438C"/>
<stop offset="1" stop-color="#008CFF"/>
</linearGradient>
<linearGradient id="paint1_linear_642_18538" x1="14.67" y1="44.2339" x2="66.67" y2="44.2339" gradientUnits="userSpaceOnUse">
<stop stop-color="#00438C"/>
<stop offset="1" stop-color="#008CFF"/>
</linearGradient>
<linearGradient id="paint2_linear_642_18538" x1="28.67" y1="22.2339" x2="52.67" y2="22.2339" gradientUnits="userSpaceOnUse">
<stop stop-color="#00438C"/>
<stop offset="1" stop-color="#008CFF"/>
</linearGradient>
<linearGradient id="paint3_linear_642_18538" x1="35.67" y1="38.2339" x2="45.67" y2="38.2339" gradientUnits="userSpaceOnUse">
<stop stop-color="#00438C"/>
<stop offset="1" stop-color="#008CFF"/>
</linearGradient>
<clipPath id="clip0_642_18538">
<rect width="80" height="80" fill="white" transform="translate(0.669998 0.233887)"/>
</clipPath>
</defs>
</svg>
