<svg width="81" height="81" viewBox="0 0 81 81" fill="none" xmlns="http://www.w3.org/2000/svg">
<g clip-path="url(#clip0_642_18483)">
<mask id="mask0_642_18483" style="mask-type:luminance" maskUnits="userSpaceOnUse" x="0" y="0" width="81" height="81">
<path d="M80.5 0.434082H0.5V80.4341H80.5V0.434082Z" fill="white"/>
</mask>
<g mask="url(#mask0_642_18483)">
<path d="M64.5002 64.4341C64.1902 64.4341 63.8902 64.3641 63.6102 64.2241L56.5002 60.6741L49.3902 64.2241C48.8302 64.5041 48.1602 64.5041 47.6002 64.2241L40.4902 60.6741L33.3802 64.2241C32.8202 64.5041 32.1502 64.5041 31.5902 64.2241L24.4802 60.6741L17.3702 64.2241C16.7502 64.5341 16.0102 64.5041 15.4202 64.1341C14.8302 63.7741 14.4702 63.1241 14.4702 62.4341V22.4341C14.4702 21.3641 14.8902 20.3641 15.6402 19.6041C16.4002 18.8441 17.4002 18.4341 18.4702 18.4341H62.4702C63.5402 18.4341 64.5402 18.8541 65.3002 19.6041C66.0602 20.3541 66.4702 21.3641 66.4702 22.4341V62.4341C66.4702 63.1241 66.1102 63.7741 65.5202 64.1341C65.2002 64.3341 64.8302 64.4341 64.4702 64.4341H64.5002ZM40.5002 56.4341C40.8102 56.4341 41.1102 56.5041 41.3902 56.6441L48.5002 60.1941L55.6102 56.6441C56.1702 56.3641 56.8402 56.3641 57.4002 56.6441L62.5102 59.1941V22.4341H18.5002V59.1941L23.6102 56.6441C24.1702 56.3641 24.8402 56.3641 25.4002 56.6441L32.5102 60.1941L39.6202 56.6441C39.9002 56.5041 40.2102 56.4341 40.5102 56.4341H40.5002Z" fill="url(#paint0_linear_642_18483)"/>
<path d="M44.2898 47.5441L36.2898 31.5441C35.9498 30.8641 35.2598 30.4341 34.4998 30.4341C33.7398 30.4341 33.0498 30.8641 32.7098 31.5441L24.7098 47.5441C24.2198 48.5341 24.6198 49.7341 25.5998 50.2241C26.5898 50.7141 27.7898 50.3141 28.2798 49.3341L29.7298 46.4441H39.2598L40.7098 49.3341C41.0598 50.0341 41.7698 50.4441 42.4998 50.4441C42.7998 50.4441 43.1098 50.3741 43.3898 50.2341C44.3798 49.7441 44.7798 48.5341 44.2798 47.5541L44.2898 47.5441ZM31.7398 42.4341L34.4998 36.9041L37.2598 42.4341H31.7298H31.7398Z" fill="url(#paint1_linear_642_18483)"/>
<path d="M56.5 42.4341H46.5C45.4 42.4341 44.5 41.5341 44.5 40.4341C44.5 39.3341 45.4 38.4341 46.5 38.4341H56.5C57.6 38.4341 58.5 39.3341 58.5 40.4341C58.5 41.5341 57.6 42.4341 56.5 42.4341Z" fill="url(#paint2_linear_642_18483)"/>
<path d="M51.5 47.4341C50.4 47.4341 49.5 46.5341 49.5 45.4341V35.4341C49.5 34.3341 50.4 33.4341 51.5 33.4341C52.6 33.4341 53.5 34.3341 53.5 35.4341V45.4341C53.5 46.5341 52.6 47.4341 51.5 47.4341Z" fill="url(#paint3_linear_642_18483)"/>
</g>
</g>
<defs>
<linearGradient id="paint0_linear_642_18483" x1="14.5002" y1="41.4341" x2="66.5002" y2="41.4341" gradientUnits="userSpaceOnUse">
<stop stop-color="#00438C"/>
<stop offset="1" stop-color="#008CFF"/>
</linearGradient>
<linearGradient id="paint1_linear_642_18483" x1="43.1665" y1="43.9341" x2="26.6665" y2="43.9341" gradientUnits="userSpaceOnUse">
<stop stop-color="#00438C"/>
<stop offset="1" stop-color="#008CFF"/>
</linearGradient>
<linearGradient id="paint2_linear_642_18483" x1="44.5" y1="40.4341" x2="58.5" y2="40.4341" gradientUnits="userSpaceOnUse">
<stop stop-color="#00438C"/>
<stop offset="1" stop-color="#008CFF"/>
</linearGradient>
<linearGradient id="paint3_linear_642_18483" x1="49.5" y1="40.4341" x2="53.5" y2="40.4341" gradientUnits="userSpaceOnUse">
<stop stop-color="#00438C"/>
<stop offset="1" stop-color="#008CFF"/>
</linearGradient>
<clipPath id="clip0_642_18483">
<rect width="80" height="80" fill="white" transform="translate(0.5 0.233887)"/>
</clipPath>
</defs>
</svg>
