<svg width="81" height="81" viewBox="0 0 81 81" fill="none" xmlns="http://www.w3.org/2000/svg">
<g clip-path="url(#clip0_642_18557)">
<mask id="mask0_642_18557" style="mask-type:luminance" maskUnits="userSpaceOnUse" x="0" y="0" width="81" height="81">
<path d="M80.6801 0.424316H0.680084V80.4243H80.6801V0.424316Z" fill="white"/>
</mask>
<g mask="url(#mask0_642_18557)">
<path d="M34.6801 54.4243C29.1701 54.4243 24.6801 49.9343 24.6801 44.4243C24.6801 38.9143 29.1701 34.4243 34.6801 34.4243C40.1901 34.4243 44.6801 38.9143 44.6801 44.4243C44.6801 49.9343 40.1901 54.4243 34.6801 54.4243ZM34.6801 38.4243C31.3701 38.4243 28.6801 41.1143 28.6801 44.4243C28.6801 47.7343 31.3701 50.4243 34.6801 50.4243C37.9901 50.4243 40.6801 47.7343 40.6801 44.4243C40.6801 41.1143 37.9901 38.4243 34.6801 38.4243Z" fill="url(#paint0_linear_642_18557)"/>
<path d="M62.6803 62.4243H47.3303C46.5603 62.4243 45.8503 61.9743 45.5203 61.2843C44.5403 59.2243 43.0103 57.4943 41.0903 56.2843C37.2503 53.8543 32.1003 53.8543 28.2603 56.2843C26.3403 57.4943 24.8103 59.2243 23.8303 61.2843C23.5003 61.9843 22.8003 62.4243 22.0203 62.4243H18.6703C17.6003 62.4243 16.6003 62.0043 15.8403 61.2543C15.0803 60.5043 14.6703 59.4943 14.6703 58.4243V22.4243C14.6703 21.3543 15.0903 20.3543 15.8403 19.5943C16.6003 18.8343 17.6003 18.4243 18.6703 18.4243H62.6703C63.7403 18.4243 64.7403 18.8443 65.5003 19.5943C66.2603 20.3543 66.6703 21.3543 66.6703 22.4243V58.4243C66.6703 59.4943 66.2503 60.4943 65.5003 61.2543C64.7403 62.0143 63.7403 62.4243 62.6703 62.4243H62.6803ZM48.5403 58.4243H62.6803V22.4243H18.6803V58.4243H20.8203C22.1103 56.1843 23.9303 54.2943 26.1203 52.9043C28.6803 51.2843 31.6403 50.4243 34.6703 50.4243C37.7003 50.4243 40.6603 51.2843 43.2203 52.9043C45.4203 54.2943 47.2303 56.1843 48.5203 58.4243H48.5403Z" fill="url(#paint1_linear_642_18557)"/>
<path d="M56.6801 54.4243H52.6801C51.5801 54.4243 50.6801 53.5243 50.6801 52.4243C50.6801 51.3243 51.5801 50.4243 52.6801 50.4243H54.6801V30.4243H26.6801V32.4243C26.6801 33.5243 25.7801 34.4243 24.6801 34.4243C23.5801 34.4243 22.6801 33.5243 22.6801 32.4243V28.4243C22.6801 27.3243 23.5801 26.4243 24.6801 26.4243H56.6801C57.7801 26.4243 58.6801 27.3243 58.6801 28.4243V52.4243C58.6801 53.5243 57.7801 54.4243 56.6801 54.4243Z" fill="url(#paint2_linear_642_18557)"/>
</g>
</g>
<defs>
<linearGradient id="paint0_linear_642_18557" x1="46.0121" y1="47.4243" x2="24.5121" y2="47.4243" gradientUnits="userSpaceOnUse">
<stop stop-color="#00438C"/>
<stop offset="1" stop-color="#008CFF"/>
</linearGradient>
<linearGradient id="paint1_linear_642_18557" x1="14.6803" y1="40.4243" x2="66.6803" y2="40.4243" gradientUnits="userSpaceOnUse">
<stop stop-color="#00438C"/>
<stop offset="1" stop-color="#008CFF"/>
</linearGradient>
<linearGradient id="paint2_linear_642_18557" x1="57.5121" y1="34.9243" x2="22.5121" y2="34.9243" gradientUnits="userSpaceOnUse">
<stop stop-color="#00438C"/>
<stop offset="1" stop-color="#008CFF"/>
</linearGradient>
<clipPath id="clip0_642_18557">
<rect width="80" height="80" fill="white" transform="translate(0.339996 0.233887)"/>
</clipPath>
</defs>
</svg>
