<svg width="80" height="81" viewBox="0 0 80 81" fill="none" xmlns="http://www.w3.org/2000/svg">
<g clip-path="url(#clip0_642_18502)">
<mask id="mask0_642_18502" style="mask-type:luminance" maskUnits="userSpaceOnUse" x="0" y="0" width="81" height="81">
<path d="M80.3398 0.434082H0.339844V80.4341H80.3398V0.434082Z" fill="white"/>
</mask>
<g mask="url(#mask0_642_18502)">
<path d="M28.3398 47.4341C22.8298 47.4341 18.3398 42.9441 18.3398 37.4341C18.3398 31.9241 22.8298 27.4341 28.3398 27.4341C33.8498 27.4341 38.3398 31.9241 38.3398 37.4341C38.3398 42.9441 33.8498 47.4341 28.3398 47.4341ZM28.3398 31.4341C25.0298 31.4341 22.3398 34.1241 22.3398 37.4341C22.3398 40.7441 25.0298 43.4341 28.3398 43.4341C31.6498 43.4341 34.3398 40.7441 34.3398 37.4341C34.3398 34.1241 31.6498 31.4341 28.3398 31.4341Z" fill="url(#paint0_linear_642_18502)"/>
<path d="M52.3398 47.4341C46.8298 47.4341 42.3398 42.9441 42.3398 37.4341C42.3398 31.9241 46.8298 27.4341 52.3398 27.4341C57.8498 27.4341 62.3398 31.9241 62.3398 37.4341C62.3398 42.9441 57.8498 47.4341 52.3398 47.4341ZM52.3398 31.4341C49.0298 31.4341 46.3398 34.1241 46.3398 37.4341C46.3398 40.7441 49.0298 43.4341 52.3398 43.4341C55.6498 43.4341 58.3398 40.7441 58.3398 37.4341C58.3398 34.1241 55.6498 31.4341 52.3398 31.4341Z" fill="url(#paint1_linear_642_18502)"/>
<path d="M64.34 53.4337C63.73 53.4337 63.13 53.1537 62.74 52.6337C61.53 51.0237 59.95 49.7037 58.15 48.8037C54.56 47.0037 50.11 47.0037 46.52 48.8037C44.72 49.7037 43.14 51.0237 41.93 52.6337C41.27 53.5137 40.01 53.6937 39.13 53.0337C38.25 52.3737 38.07 51.1137 38.73 50.2337C40.31 48.1337 42.38 46.4037 44.73 45.2337C49.42 42.8837 55.24 42.8837 59.9399 45.2337C62.29 46.4037 64.36 48.1337 65.9399 50.2337C66.5999 51.1137 66.4199 52.3737 65.5399 53.0337C65.1799 53.3037 64.76 53.4337 64.34 53.4337Z" fill="url(#paint2_linear_642_18502)"/>
<path d="M40.34 53.4337C39.73 53.4337 39.13 53.1537 38.74 52.6337C37.53 51.0237 35.95 49.7037 34.15 48.8037C30.56 47.0037 26.11 47.0037 22.52 48.8037C20.72 49.7037 19.14 51.0237 17.93 52.6337C17.27 53.5137 16.01 53.6937 15.13 53.0337C14.25 52.3737 14.07 51.1137 14.73 50.2337C16.31 48.1337 18.38 46.4037 20.73 45.2337C25.42 42.8837 31.24 42.8837 35.9399 45.2337C38.29 46.4037 40.36 48.1337 41.9399 50.2337C42.5999 51.1137 42.42 52.3737 41.54 53.0337C41.18 53.3037 40.76 53.4337 40.34 53.4337Z" fill="url(#paint3_linear_642_18502)"/>
</g>
</g>
<defs>
<linearGradient id="paint0_linear_642_18502" x1="36.8398" y1="36.4341" x2="18.8398" y2="36.4341" gradientUnits="userSpaceOnUse">
<stop stop-color="#00438C"/>
<stop offset="1" stop-color="#008CFF"/>
</linearGradient>
<linearGradient id="paint1_linear_642_18502" x1="60.8398" y1="36.4341" x2="42.8398" y2="36.4341" gradientUnits="userSpaceOnUse">
<stop stop-color="#00438C"/>
<stop offset="1" stop-color="#008CFF"/>
</linearGradient>
<linearGradient id="paint2_linear_642_18502" x1="38.34" y1="48.4537" x2="66.3399" y2="48.4537" gradientUnits="userSpaceOnUse">
<stop stop-color="#00438C"/>
<stop offset="1" stop-color="#008CFF"/>
</linearGradient>
<linearGradient id="paint3_linear_642_18502" x1="14.34" y1="48.4537" x2="42.3399" y2="48.4537" gradientUnits="userSpaceOnUse">
<stop stop-color="#00438C"/>
<stop offset="1" stop-color="#008CFF"/>
</linearGradient>
<clipPath id="clip0_642_18502">
<rect width="80" height="80" fill="white" transform="translate(0 0.233887)"/>
</clipPath>
</defs>
</svg>
