<svg width="81" height="81" viewBox="0 0 81 81" fill="none" xmlns="http://www.w3.org/2000/svg">
<g clip-path="url(#clip0_642_18575)">
<mask id="mask0_642_18575" style="mask-type:luminance" maskUnits="userSpaceOnUse" x="0" y="0" width="81" height="81">
<path d="M80.5099 0.423828H0.509888V80.4238H80.5099V0.423828Z" fill="white"/>
</mask>
<g mask="url(#mask0_642_18575)">
<path fill-rule="evenodd" clip-rule="evenodd" d="M63.0345 41.7808C61.1645 40.8458 59.1022 40.3598 57.0114 40.3613C55.9068 40.3622 55.0107 39.4674 55.0099 38.3628C55.0091 37.2583 55.9038 36.3622 57.0084 36.3613C59.7211 36.3593 62.397 36.9899 64.8234 38.2031C67.2497 39.4163 69.3598 41.1786 70.9858 43.35C71.6479 44.2342 71.4678 45.4877 70.5837 46.1497C69.6995 46.8118 68.4461 46.6318 67.784 45.7476C66.5308 44.0741 64.9046 42.7158 63.0345 41.7808Z" fill="url(#paint0_linear_642_18575)"/>
<path fill-rule="evenodd" clip-rule="evenodd" d="M24.0084 40.3613C21.9176 40.3598 19.8553 40.8458 17.9852 41.7808C16.1152 42.7158 14.489 44.0741 13.2358 45.7476C12.5737 46.6318 11.3202 46.8118 10.4361 46.1497C9.55193 45.4877 9.37191 44.2342 10.034 43.35C11.66 41.1786 13.77 39.4163 16.1964 38.2031C18.6228 36.9899 21.2986 36.3593 24.0114 36.3613C25.116 36.3622 26.0107 37.2583 26.0099 38.3628C26.0091 39.4674 25.113 40.3622 24.0084 40.3613Z" fill="url(#paint1_linear_642_18575)"/>
<path fill-rule="evenodd" clip-rule="evenodd" d="M40.5099 36.2363C35.919 36.2363 32.1974 39.958 32.1974 44.5488C32.1974 49.1397 35.919 52.8613 40.5099 52.8613C45.1008 52.8613 48.8224 49.1397 48.8224 44.5488C48.8224 39.958 45.1008 36.2363 40.5099 36.2363ZM28.1974 44.5488C28.1974 37.7488 33.7099 32.2363 40.5099 32.2363C47.3099 32.2363 52.8224 37.7488 52.8224 44.5488C52.8224 51.3488 47.3099 56.8613 40.5099 56.8613C33.7099 56.8613 28.1974 51.3488 28.1974 44.5488Z" fill="url(#paint2_linear_642_18575)"/>
<path fill-rule="evenodd" clip-rule="evenodd" d="M40.5099 56.8613C37.9416 56.8613 35.4178 57.5316 33.188 58.8058C30.9581 60.08 29.0994 61.9141 27.7955 64.1267C27.2347 65.0783 26.0086 65.3952 25.057 64.8344C24.1054 64.2736 23.7885 63.0476 24.3493 62.0959C26.0066 59.2836 28.3692 56.9524 31.2034 55.3328C34.0377 53.7132 37.2455 52.8613 40.5099 52.8613C43.7743 52.8613 46.9821 53.7132 49.8164 55.3328C52.6506 56.9524 55.0132 59.2836 56.6705 62.0959C57.2313 63.0476 56.9144 64.2736 55.9628 64.8344C55.0112 65.3952 53.7851 65.0783 53.2243 64.1267C51.9204 61.9141 50.0617 60.08 47.8318 58.8058C45.602 57.5316 43.0782 56.8613 40.5099 56.8613Z" fill="url(#paint3_linear_642_18575)"/>
<path fill-rule="evenodd" clip-rule="evenodd" d="M59.1728 24.2491C58.0765 23.8438 56.8885 23.7541 55.7437 23.9901C54.599 24.2261 53.5434 24.7784 52.6967 25.5842C51.8501 26.39 51.2464 27.4171 50.9542 28.5488C50.678 29.6183 49.5872 30.2615 48.5177 29.9853C47.4482 29.7092 46.8051 28.6183 47.0812 27.5488C47.5604 25.6928 48.5505 24.0084 49.939 22.6868C51.3274 21.3652 53.0587 20.4595 54.9361 20.0725C56.8135 19.6854 58.7618 19.8326 60.5597 20.4972C62.3577 21.1618 63.9333 22.3173 65.1075 23.8325C66.2817 25.3476 67.0075 27.1616 67.2025 29.0686C67.3976 30.9755 67.0539 32.8989 66.2107 34.6203C65.3674 36.3418 64.0584 37.7923 62.4322 38.8071C60.806 39.8219 58.9278 40.3604 57.0109 40.3613C55.9063 40.3619 55.0104 39.4669 55.0099 38.3623C55.0093 37.2578 55.9043 36.3619 57.0089 36.3613C58.1777 36.3607 59.3229 36.0324 60.3145 35.4136C61.3061 34.7948 62.1043 33.9104 62.6185 32.8607C63.1327 31.8111 63.3422 30.6383 63.2233 29.4755C63.1044 28.3127 62.6618 27.2066 61.9458 26.2828C61.2298 25.3589 60.2691 24.6543 59.1728 24.2491Z" fill="url(#paint4_linear_642_18575)"/>
<path fill-rule="evenodd" clip-rule="evenodd" d="M25.2768 23.9901C24.132 23.7541 22.944 23.8438 21.8477 24.2491C20.7514 24.6543 19.7907 25.3589 19.0747 26.2828C18.3587 27.2066 17.9161 28.3127 17.7972 29.4755C17.6783 30.6383 17.8878 31.8111 18.402 32.8607C18.9162 33.9104 19.7144 34.7948 20.706 35.4136C21.6976 36.0324 22.8428 36.3607 24.0116 36.3613C25.1162 36.3619 26.0112 37.2578 26.0106 38.3623C26.0101 39.4669 25.1142 40.3619 24.0096 40.3613C22.0927 40.3604 20.2145 39.8219 18.5883 38.8071C16.9621 37.7923 15.6531 36.3418 14.8098 34.6203C13.9666 32.8989 13.6229 30.9755 13.818 29.0686C14.013 27.1616 14.7388 25.3476 15.913 23.8325C17.0872 22.3173 18.6628 21.1618 20.4608 20.4972C22.2587 19.8326 24.207 19.6854 26.0844 20.0725C27.9618 20.4595 29.6931 21.3652 31.0815 22.6868C32.47 24.0084 33.4601 25.6928 33.9393 27.5488C34.2154 28.6183 33.5723 29.7092 32.5028 29.9853C31.4333 30.2615 30.3425 29.6183 30.0663 28.5488C29.7741 27.4171 29.1704 26.39 28.3238 25.5842C27.4771 24.7784 26.4215 24.2261 25.2768 23.9901Z" fill="url(#paint5_linear_642_18575)"/>
</g>
</g>
<defs>
<linearGradient id="paint0_linear_642_18575" x1="63.1974" y1="36.3613" x2="72.5099" y2="48.4238" gradientUnits="userSpaceOnUse">
<stop stop-color="#0289FB"/>
<stop offset="1" stop-color="#015195"/>
</linearGradient>
<linearGradient id="paint1_linear_642_18575" x1="17.8223" y1="36.3613" x2="17.8223" y2="46.549" gradientUnits="userSpaceOnUse">
<stop stop-color="#0184F2"/>
<stop offset="1" stop-color="#014C8C"/>
</linearGradient>
<linearGradient id="paint2_linear_642_18575" x1="40.5099" y1="32.2363" x2="54.5099" y2="47.4238" gradientUnits="userSpaceOnUse">
<stop stop-color="#0185F4"/>
<stop offset="1" stop-color="#014D8E"/>
</linearGradient>
<linearGradient id="paint3_linear_642_18575" x1="40.5099" y1="52.8613" x2="56.5096" y2="64.4238" gradientUnits="userSpaceOnUse">
<stop stop-color="#016AC2"/>
<stop offset="1" stop-color="#00325C"/>
</linearGradient>
<linearGradient id="paint4_linear_642_18575" x1="57.1365" y1="19.8613" x2="66.5094" y2="36.4238" gradientUnits="userSpaceOnUse">
<stop stop-color="#0189FB"/>
<stop offset="1" stop-color="#015195"/>
</linearGradient>
<linearGradient id="paint5_linear_642_18575" x1="23.884" y1="19.8613" x2="34.5099" y2="32.4238" gradientUnits="userSpaceOnUse">
<stop stop-color="#0189FB"/>
<stop offset="1" stop-color="#015195"/>
</linearGradient>
<clipPath id="clip0_642_18575">
<rect width="80" height="80" fill="white" transform="translate(0.839966 0.233887)"/>
</clipPath>
</defs>
</svg>
