<svg width="81" height="81" viewBox="0 0 81 81" fill="none" xmlns="http://www.w3.org/2000/svg">
<g clip-path="url(#clip0_642_18521)">
<mask id="mask0_642_18521" style="mask-type:luminance" maskUnits="userSpaceOnUse" x="0" y="0" width="81" height="81">
<path d="M80.1699 0.434082H0.169922V80.4341H80.1699V0.434082Z" fill="white"/>
</mask>
<g mask="url(#mask0_642_18521)">
<path d="M65.6298 26.0938C65.0898 25.1338 63.8698 24.8038 62.8998 25.3438L40.3798 38.1338L17.4098 25.3338C16.4498 24.7938 15.2298 25.1438 14.6898 26.1038C14.1498 27.0638 14.4998 28.2838 15.4598 28.8238L38.3698 41.5938L38.1498 67.1038C38.1498 68.2038 39.0298 69.1138 40.1298 69.1238H40.1498C41.2498 69.1238 42.1398 68.2438 42.1498 67.1438L42.3698 41.5938L64.8698 28.8138C65.8298 28.2638 66.1698 27.0438 65.6198 26.0838L65.6298 26.0938Z" fill="url(#paint0_linear_642_18521)"/>
<path d="M40.1698 69.1438C39.4797 69.1438 38.7997 68.9638 38.1997 68.6138L16.2197 56.2538C15.5997 55.9038 15.0797 55.3938 14.7297 54.7838C14.3697 54.1738 14.1797 53.4838 14.1797 52.7738V28.1138C14.1797 27.3938 14.3797 26.6938 14.7297 26.0838C15.0797 25.4738 15.5997 24.9738 16.2097 24.6238L38.2197 12.2438C39.3697 11.5738 40.9497 11.5638 42.1497 12.2538L64.1297 24.6138C64.7497 24.9638 65.2697 25.4738 65.6197 26.0838C65.9797 26.6938 66.1698 27.3838 66.1698 28.0938V52.7538C66.1698 53.4738 65.9797 54.1638 65.6197 54.7738C65.2597 55.3838 64.7497 55.8938 64.1397 56.2438L42.1297 68.6238C41.5497 68.9638 40.8698 69.1438 40.1698 69.1438ZM40.1698 15.7238L18.1797 28.1038V52.7638L40.1797 65.1438L62.1698 52.7638H64.1798H62.1797V28.1138L40.1698 15.7338V15.7238Z" fill="url(#paint1_linear_642_18521)"/>
</g>
</g>
<defs>
<linearGradient id="paint0_linear_642_18521" x1="65.67" y1="54.4336" x2="16.67" y2="26.4336" gradientUnits="userSpaceOnUse">
<stop stop-color="#00438C"/>
<stop offset="1" stop-color="#008CFF"/>
</linearGradient>
<linearGradient id="paint1_linear_642_18521" x1="14.1697" y1="40.4438" x2="66.1697" y2="40.4438" gradientUnits="userSpaceOnUse">
<stop stop-color="#00438C"/>
<stop offset="1" stop-color="#008CFF"/>
</linearGradient>
<clipPath id="clip0_642_18521">
<rect width="80" height="80" fill="white" transform="translate(0.5 0.233887)"/>
</clipPath>
</defs>
</svg>
