<svg width="20" height="20" viewBox="0 0 20 20" fill="none" xmlns="http://www.w3.org/2000/svg">
<g id="share-social">
<path id="Vector" d="M15.0001 13.1247C14.6634 13.1246 14.3301 13.1927 14.0205 13.3249C13.7109 13.4572 13.4312 13.6509 13.1985 13.8942L7.41728 10.6415C7.52927 10.2209 7.52927 9.77842 7.41728 9.35788L13.1985 6.10515C13.6195 6.54161 14.1852 6.80961 14.7896 6.85893C15.394 6.90825 15.9956 6.73552 16.4818 6.37309C16.968 6.01066 17.3053 5.4834 17.4307 4.89009C17.556 4.29678 17.4607 3.67813 17.1627 3.15004C16.8646 2.62194 16.3842 2.22064 15.8115 2.0213C15.2388 1.82197 14.6131 1.83829 14.0515 2.0672C13.49 2.29611 13.0312 2.7219 12.761 3.26481C12.4909 3.80773 12.428 4.4305 12.5841 5.01648L6.80283 8.26921C6.4575 7.90915 6.01233 7.66064 5.5246 7.55566C5.03687 7.45067 4.52889 7.49402 4.06599 7.68012C3.6031 7.86622 3.20648 8.18655 2.92714 8.59992C2.6478 9.01329 2.49854 9.50078 2.49854 9.99968C2.49854 10.4986 2.6478 10.9861 2.92714 11.3994C3.20648 11.8128 3.6031 12.1331 4.06599 12.3192C4.52889 12.5053 5.03687 12.5487 5.5246 12.4437C6.01233 12.3387 6.4575 12.0902 6.80283 11.7301L12.5841 14.9829C12.45 15.4875 12.4774 16.0215 12.6622 16.5098C12.8471 16.9981 13.1802 17.4163 13.6148 17.7056C14.0494 17.995 14.5637 18.141 15.0856 18.1232C15.6074 18.1054 16.1106 17.9247 16.5244 17.6063C16.9383 17.288 17.2421 16.8481 17.3933 16.3483C17.5444 15.8485 17.5353 15.314 17.3671 14.8197C17.199 14.3253 16.8803 13.8961 16.4558 13.5921C16.0313 13.2881 15.5222 13.1246 15.0001 13.1247Z" fill="#E97862"/>
</g>
</svg>
